<svg xmlns="http://www.w3.org/2000/svg" viewBox="0 0 122 122"><defs><style>.cls-1{fill:none;}.cls-2{fill:#fff;}</style></defs><title>Asset 45</title><g id="Layer_2" data-name="Layer 2"><g id="Layer_1-2" data-name="Layer 1"><rect class="cls-1" width="122" height="122"/><polygon class="cls-2" points="85.86 59.89 65.47 33.65 74.57 39.09 81.86 33.43 91 44.81 83.71 50.48 85.86 59.89"/><path class="cls-2" d="M52.85,84.49c-3.38.41-9.92-5.62-9.92-5.62l3.47-2.68-5.62-.08L35.49,66.9l4.61-3.59c-3.38.41-8.84-4.23-8.84-4.23L29.43,47.19C42.65,54.68,65.86,43,65.86,43s9,11.68,11.12,14.45C76.9,59.69,56.23,84.09,52.85,84.49Z"/><circle class="cls-2" cx="68.06" cy="80.75" r="1.85"/><circle class="cls-2" cx="68.89" cy="85.91" r="1.85"/><circle class="cls-2" cx="63.32" cy="84.16" r="1.85"/></g></g></svg>