<svg xmlns="http://www.w3.org/2000/svg" viewBox="0 0 122 122"><defs><style>.cls-1{fill:none;}.cls-2{fill:#fff;stroke:#5f9aee;stroke-miterlimit:10;stroke-width:2px;}.cls-3,.cls-4{fill:#5f9aee;}.cls-3{opacity:0.11;}</style></defs><title>Asset 60</title><g id="Layer_2" data-name="Layer 2"><g id="Layer_1-2" data-name="Layer 1"><rect class="cls-1" width="122" height="122"/><rect class="cls-2" x="34.5" y="25.16" width="39.32" height="66.68" rx="1.91"/><rect class="cls-3" x="66.08" y="25.16" width="7.75" height="66.68"/><path class="cls-2" d="M87.5,39.41V60.49a2.28,2.28,0,0,1-2.28,2.28H66.28a2.32,2.32,0,0,0-1.45.52l-6.09,5A2.28,2.28,0,0,1,55,66.51V39.41a2.28,2.28,0,0,1,2.28-2.28H85.22A2.28,2.28,0,0,1,87.5,39.41Z"/><path class="cls-3" d="M87.5,41.13V62.19a2.29,2.29,0,0,1-2.29,2.29H65.27v.24a2.32,2.32,0,0,0-.44.28L59.2,69.61H55.82V64.48l4.82-5.13H79.76V38.84h5.45A2.29,2.29,0,0,1,87.5,41.13Z"/><circle class="cls-4" cx="61.85" cy="50.81" r="1.71"/><circle class="cls-4" cx="72.11" cy="50.81" r="1.71"/><circle class="cls-4" cx="80.66" cy="50.81" r="1.71"/><rect class="cls-4" x="49.89" y="81.58" width="10.26" height="3.42" rx="1"/></g></g></svg>