<svg xmlns="http://www.w3.org/2000/svg" viewBox="0 0 122 122"><defs><style>.cls-1{fill:none;}.cls-2{fill:#fff;}</style></defs><title>Asset 48</title><g id="Layer_2" data-name="Layer 2"><g id="Layer_1-2" data-name="Layer 1"><rect class="cls-1" width="122" height="122"/><path class="cls-2" d="M69.19,71.79C65,76,62.24,80,64.9,82.67A5.66,5.66,0,0,0,70,83.94a8.57,8.57,0,0,1,1.15-.26s.06,0,.09,0l.58-.09a2.14,2.14,0,0,1,1.76,3.63l-7,7a3.07,3.07,0,0,1-4.31,0L32.8,64.62a3,3,0,0,1,0-4.31l7-7A2.15,2.15,0,0,1,43.4,55.1c0,.18,0,.38-.1.58a.26.26,0,0,1,0,.1A9.32,9.32,0,0,1,43,56.93a5.64,5.64,0,0,0,1.28,5.12C47,64.71,51,61.94,55.16,57.76s7-8.22,4.3-10.88a5.66,5.66,0,0,0-5.13-1.27c-.4.11-.78.19-1.15.26l-.09,0L52.5,46a2.14,2.14,0,0,1-1.75-3.63l7-7a3,3,0,0,1,4.31,0L72.1,45.46a2.15,2.15,0,0,0,2.61-2.32c0-.19,0-.39-.09-.59a.46.46,0,0,1,0-.09,9.58,9.58,0,0,0-.27-1.16,5.68,5.68,0,0,1,1.28-5.12c2.66-2.66,6.69.11,10.88,4.3s7,8.21,4.29,10.87a5.68,5.68,0,0,1-5.12,1.28,9.46,9.46,0,0,0-1.16-.26s-.06,0-.09,0c-.2,0-.4,0-.59-.09a2.16,2.16,0,0,0-2.32,2.62L91.56,64.92a3,3,0,0,1,0,4.31l-7,7A2.14,2.14,0,0,1,81,74.45c0-.18.05-.39.1-.59a.29.29,0,0,1,0-.09,7.52,7.52,0,0,1,.26-1.15,5.69,5.69,0,0,0-1.28-5.13C77.41,64.83,73.38,67.6,69.19,71.79Z"/></g></g></svg>