<svg xmlns="http://www.w3.org/2000/svg" viewBox="0 0 122 122"><defs><style>.cls-1{fill:none;}.cls-2,.cls-3{fill:#fff;}.cls-2{stroke:#5f9aee;stroke-miterlimit:10;stroke-width:2px;}.cls-4,.cls-5{fill:#5f9aee;}.cls-5{opacity:0.11;}</style></defs><title>Asset 59</title><g id="Layer_2" data-name="Layer 2"><g id="Layer_1-2" data-name="Layer 1"><rect class="cls-1" width="122" height="122"/><polygon class="cls-2" points="32.04 58.31 24.65 54.62 24.65 49.08 35.73 49.08 32.04 58.31"/><polygon class="cls-2" points="92.96 58.31 100.35 54.62 100.35 49.08 89.27 49.08 92.96 58.31"/><polygon class="cls-2" points="43.12 38 32.04 56.46 35.73 86 44.96 86 48.65 80.46 76.35 80.46 80.04 86 89.27 86 92.96 56.46 83.73 38 43.12 38"/><path class="cls-2" d="M93,56.46h0a125.44,125.44,0,0,1-59.18.41L32,56.46"/><polygon class="cls-3" points="40.86 75.42 39.05 66.7 51 71.82 51 75.42 40.86 75.42"/><path class="cls-4" d="M39.73,67.54,50.5,72.15v2.77H41.27l-1.54-7.38m-1.37-1.68.39,1.88,1.54,7.39.17.79h11V71.49l-.61-.26L40.12,66.62l-1.76-.76Z"/><polygon class="cls-3" points="74 75.42 74 71.82 85.95 66.7 84.14 75.42 74 75.42"/><path class="cls-4" d="M85.27,67.54l-1.54,7.38H74.5V72.15l10.77-4.61m1.37-1.68-1.76.76L74.11,71.23l-.61.26v4.43h11l.17-.79,1.54-7.39.39-1.88Z"/><path class="cls-5" d="M93,56.46,89.27,86H80l3.45-27.6c-6.74,1-16.8,1.2-29.09,1.24a80.83,80.83,0,0,0,28.13-5.58L74.5,38h9.23Z"/><polygon class="cls-5" points="50.5 78.61 39.42 78.61 35.41 83.47 35.73 86 44.96 86 50.5 78.61"/></g></g></svg>