<svg xmlns="http://www.w3.org/2000/svg" viewBox="0 0 122 122"><defs><style>.cls-1{fill:none;}.cls-2{fill:#fff;}</style></defs><title>Asset 49</title><g id="Layer_2" data-name="Layer 2"><g id="Layer_1-2" data-name="Layer 1"><rect class="cls-1" width="122" height="122"/><path class="cls-2" d="M84.92,66l2.87,5.44A1.93,1.93,0,0,1,87,74L81.21,77a1.9,1.9,0,0,0-1,1.69v6.55a1.92,1.92,0,0,1-1.91,1.91H69.45a1.91,1.91,0,0,0-1.55.8L62.74,95.2a1.91,1.91,0,0,1-2.67.44l-5-3.59a1.92,1.92,0,0,0-2-.13L47.6,94.79A1.93,1.93,0,0,1,45,94l-3-5.78a1.9,1.9,0,0,0-1.69-1H33.72a1.92,1.92,0,0,1-1.91-1.91V76.45A1.91,1.91,0,0,0,31,74.9L23.8,69.74a1.91,1.91,0,0,1-.44-2.67l3.59-5a1.92,1.92,0,0,0,.13-2L24.21,54.6A1.93,1.93,0,0,1,25,52l5.78-3a1.9,1.9,0,0,0,1-1.69V40.72a1.92,1.92,0,0,1,1.91-1.91h8.83A1.91,1.91,0,0,0,44.1,38l5.16-7.21a1.91,1.91,0,0,1,2.67-.44L57,34a1.92,1.92,0,0,0,2,.13l5.44-2.87A1.93,1.93,0,0,1,67,32L70,37.79a1.9,1.9,0,0,0,1.69,1h6.55a1.92,1.92,0,0,1,1.91,1.91v8.83A1.91,1.91,0,0,0,81,51.1l7.21,5.16a1.91,1.91,0,0,1,.44,2.67l-3.59,5A1.92,1.92,0,0,0,84.92,66ZM72,50.31a2.94,2.94,0,0,0-3.94-.15L52.59,62.8l-8.35-3.12a3,3,0,0,0-3.41,4.57L50.5,77a3,3,0,0,0,2.38,1.17A3,3,0,0,0,55.25,77L72.34,54.25A3,3,0,0,0,72,50.31Z"/></g></g></svg>