<svg xmlns="http://www.w3.org/2000/svg" viewBox="0 0 122 122"><defs><style>.cls-1{fill:none;}.cls-2{fill:#fff;}</style></defs><title>Asset 46</title><g id="Layer_2" data-name="Layer 2"><g id="Layer_1-2" data-name="Layer 1"><rect class="cls-1" width="122" height="122"/><path class="cls-2" d="M92.91,61.56v25A25.19,25.19,0,0,0,76,79.92a24.63,24.63,0,0,0-12.55,3.46c-.07,0-2.34,1.79-3.52,2.47a.76.76,0,0,1-.14.11,24.61,24.61,0,0,1-12.55,3.47c-7.34,0-12.45-3.28-17.32-8.64L29.1,34.24C34,40.1,39.48,43.75,47.23,43.75a24.6,24.6,0,0,0,12.55-3.46s.11-.07.14-.11a17.12,17.12,0,0,0,2.81-1.63s1.11-.72,2.35-1.45A17.06,17.06,0,0,0,63.16,45c0,.31,0,.63,0,.94.28,8.5,4.44,16.43,7.89,21.6A65.56,65.56,0,0,0,76.88,75a4.45,4.45,0,0,0,6.72,0A63.73,63.73,0,0,0,92.91,61.56Z"/><path class="cls-2" d="M93,45c0,.21,0,.42,0,.69s0,.85-.07,1.26V43.53A11.28,11.28,0,0,1,93,45Z"/><path class="cls-2" d="M92.91,45.19v1a12.45,12.45,0,0,1-.06,1.37c-1.15,10.83-9,20.67-12.49,24.55a.14.14,0,0,1-.12.05.11.11,0,0,1-.11-.06,60.08,60.08,0,0,1-5.45-7c-3.16-4.73-7-11.94-7.18-19.47v-.1a5.62,5.62,0,0,1,0-.58,12.78,12.78,0,0,1,20.3-10.31,13.41,13.41,0,0,1,1.23,1,12.79,12.79,0,0,1,3.5,6.19v.06A13.37,13.37,0,0,1,92.91,45.19Zm-19-.6a6,6,0,1,0,6-6A6,6,0,0,0,73.94,44.59Z"/></g></g></svg>