<svg xmlns="http://www.w3.org/2000/svg" viewBox="0 0 122 122"><defs><style>.cls-1,.cls-3,.cls-5{fill:none;}.cls-2{fill:#fff;}.cls-3,.cls-5{stroke:#5f9aee;stroke-linecap:round;stroke-width:2px;}.cls-3{stroke-miterlimit:10;}.cls-4{fill:#5f9aee;opacity:0.11;}.cls-5{stroke-linejoin:round;}</style></defs><title>Asset 58</title><g id="Layer_2" data-name="Layer 2"><g id="Layer_1-2" data-name="Layer 1"><rect class="cls-1" width="122" height="122"/><path class="cls-2" d="M79.26,49.37c0,.37,0,.76,0,1.14C78.69,69.74,64,87.62,59,93.24a2.26,2.26,0,0,1-3.38,0A98.28,98.28,0,0,1,46.88,82c-5.51-8.27-11.23-19.64-11.57-31.51,0-.38,0-.77,0-1.14a22,22,0,0,1,44,0Z"/><path class="cls-3" d="M79.19,47.61c0,.58.07,1.17.07,1.76,0,.37,0,.76,0,1.14C78.69,69.74,64,87.62,59,93.24a2.26,2.26,0,0,1-3.38,0c-5.06-5.62-19.73-23.5-20.27-42.73,0-.38,0-.77,0-1.14A22,22,0,0,1,74.69,36"/><path class="cls-4" d="M79.26,49.37c0,.37,0,.76,0,1.14C78.69,69.74,64,87.62,59,93.24a2.26,2.26,0,0,1-3.38,0A98.28,98.28,0,0,1,46.88,82C55.63,76.39,67.66,66.76,73,53.84a9.28,9.28,0,0,0,.43-1.05,21.94,21.94,0,0,0-3.15-21.18A21.9,21.9,0,0,1,79.26,49.37Z"/><polyline class="cls-5" points="50.5 47.68 62.35 57.83 87.72 34.15"/></g></g></svg>