<svg xmlns="http://www.w3.org/2000/svg" viewBox="0 0 122 122"><defs><style>.cls-1,.cls-2{fill:none;}.cls-2,.cls-3{stroke:#5f9aee;stroke-miterlimit:10;stroke-width:2px;}.cls-3{fill:#fff;}.cls-4,.cls-5{fill:#5f9aee;}.cls-5{opacity:0.11;}</style></defs><title>Asset 50</title><g id="Layer_2" data-name="Layer 2"><g id="Layer_1-2" data-name="Layer 1"><rect class="cls-1" width="122" height="122"/><polyline class="cls-2" points="80.96 58.13 57.11 43.06 37.02 50.6 58.36 84.49"/><path class="cls-3" d="M89.74,36.79c0,12.11-6.76,20.75-8.42,23.3a.44.44,0,0,1-.73,0c-1.65-2.55-8.42-11.19-8.42-23.3a8.79,8.79,0,1,1,17.57,0Z"/><circle class="cls-4" cx="80.96" cy="36.79" r="2.51"/><path class="cls-5" d="M89.74,36.79c0,12.11-6.76,20.75-8.42,23.3a.44.44,0,0,1-.73,0c-.8-1.25-2.81-2-4.65-6.39,2.58-4,6.27-11,6.27-18.41a7.24,7.24,0,0,0-4.86-6.51A8.66,8.66,0,0,1,81,28,8.77,8.77,0,0,1,89.74,36.79Z"/><circle class="cls-3" cx="37.02" cy="50.6" r="3.77"/><circle class="cls-3" cx="57.11" cy="83.23" r="3.77"/><circle class="cls-3" cx="57.11" cy="41.81" r="3.77"/></g></g></svg>