<svg xmlns="http://www.w3.org/2000/svg" viewBox="0 0 122 122"><defs><style>.cls-1{fill:none;}.cls-2{fill:#fff;}</style></defs><title>Asset 53</title><g id="Layer_2" data-name="Layer 2"><g id="Layer_1-2" data-name="Layer 1"><rect class="cls-1" width="122" height="122"/><path class="cls-2" d="M40.62,85h6.71v3.14A4.91,4.91,0,0,1,42.42,93H41.5a4.91,4.91,0,0,1-4.91-4.91V84.25A11.69,11.69,0,0,0,40.62,85Z"/><path class="cls-2" d="M84.91,84.25v3.84A4.91,4.91,0,0,1,80,93h-.92a4.91,4.91,0,0,1-4.91-4.91V85h6.71A11.69,11.69,0,0,0,84.91,84.25Z"/><path class="cls-2" d="M41.5,68.84a4.91,4.91,0,0,0-4.91,4.91v.46A5.39,5.39,0,0,1,42,68.84Zm.92,0H42a5.39,5.39,0,0,1,5.37,5.37v-.46A4.91,4.91,0,0,0,42.42,68.84Zm36.66,0a4.91,4.91,0,0,0-4.91,4.91v.46a5.39,5.39,0,0,1,5.37-5.37Zm.92,0h-.46a5.39,5.39,0,0,1,5.37,5.37v-.46A4.91,4.91,0,0,0,80,68.84Z"/><path class="cls-2" d="M80.88,60.79H40.62a12.08,12.08,0,0,0-4,23.46,11.69,11.69,0,0,0,4,.7H80.88a12.12,12.12,0,0,0,8.54-3.55,12.07,12.07,0,0,0-8.54-20.61ZM47.33,74.21a5.37,5.37,0,1,1-10.74,0v-.46a4.91,4.91,0,0,1,4.91-4.91h.92a4.91,4.91,0,0,1,4.91,4.91Zm37.58,0a5.37,5.37,0,1,1-10.74,0v-.46a4.91,4.91,0,0,1,4.91-4.91H80a4.91,4.91,0,0,1,4.91,4.91Z"/><path class="cls-2" d="M80.88,63.47H40.62V56.61A14.61,14.61,0,0,1,55.22,42H66.28a14.61,14.61,0,0,1,14.6,14.61Zm-16.29-15H56.91A10.16,10.16,0,0,0,46.74,58.58v3.84h28V58.58A10.16,10.16,0,0,0,64.59,48.42Z"/></g></g></svg>