<svg xmlns="http://www.w3.org/2000/svg" viewBox="0 0 122 122"><defs><style>.cls-1{fill:none;}.cls-2{fill:#e3e4e7;}</style></defs><title>Asset 47</title><g id="Layer_2" data-name="Layer 2"><g id="Layer_1-2" data-name="Layer 1"><rect class="cls-1" width="122" height="122"/><path class="cls-2" d="M86.39,58.72v19A5.33,5.33,0,0,1,81.08,83H41.92a5.33,5.33,0,0,1-5.31-5.31V60.58A33.12,33.12,0,0,0,54,70.27v5.16a2.14,2.14,0,0,0,2.15,2.14h9a2.14,2.14,0,0,0,2.15-2.14V70.24A33,33,0,0,0,86.39,58.72Z"/><path class="cls-2" d="M86.39,53V55.4A33,33,0,0,1,67.31,66.92V59.8a2.14,2.14,0,0,0-2.15-2.14h-9A2.14,2.14,0,0,0,54,59.8V67a33,33,0,0,1-17.42-9.69V53a5.33,5.33,0,0,1,5.31-5.31H81.08A5.33,5.33,0,0,1,86.39,53Z"/><path class="cls-2" d="M74.77,54.34H48.23V40.24a2.48,2.48,0,0,1,2.48-2.49H72.35a2.42,2.42,0,0,1,2.42,2.43ZM67,44.39H55.17a.72.72,0,0,0-.72.72V51H67.72V45.11A.72.72,0,0,0,67,44.39Z"/></g></g></svg>