<svg xmlns="http://www.w3.org/2000/svg" viewBox="0 0 122 122"><defs><style>.cls-1{fill:none;}.cls-2{fill:#fff;}</style></defs><title>Asset 55</title><g id="Layer_2" data-name="Layer 2"><g id="Layer_1-2" data-name="Layer 1"><rect class="cls-1" width="122" height="122"/><path class="cls-2" d="M91,83.22H51.64c.28-4.17,1.53-7.25,3.74-9.13a9.79,9.79,0,0,1,7.29-2H76.83a8.73,8.73,0,0,0,6.38-2.37Z"/><path class="cls-2" d="M82.14,67.88a6.6,6.6,0,0,1-5.31,2.18H74l-11.15,0a11.5,11.5,0,0,0-8.75,2.45c-2.67,2.27-4.19,5.87-4.49,10.69H31.7L57.3,38.87,70.46,61.66l4.05-7Z"/><circle class="cls-2" cx="82.9" cy="46.79" r="6.07"/></g></g></svg>