<svg xmlns="http://www.w3.org/2000/svg" viewBox="0 0 122 122"><defs><style>.cls-1{fill:none;}.cls-2{fill:#fff;}</style></defs><title>Asset 43</title><g id="Layer_2" data-name="Layer 2"><g id="Layer_1-2" data-name="Layer 1"><rect class="cls-1" width="122" height="122"/><path class="cls-2" d="M67.06,83.6v-45a5.24,5.24,0,0,0-5.25-5.25H42.17a5.23,5.23,0,0,0-5.24,5.25v45a2.51,2.51,0,1,0,0,5H67.06a2.51,2.51,0,0,0,0-5ZM42,40a1.57,1.57,0,0,1,1.56-1.56h17A1.57,1.57,0,0,1,62,40V51.91a1.57,1.57,0,0,1-1.55,1.56h-17A1.57,1.57,0,0,1,42,51.91Z"/><path class="cls-2" d="M89.59,72.44c-1.09,3.69-4.22,6.42-9.32,8.12a23.73,23.73,0,0,1-7.53,1.29c-11.53,0-17.45-9.61-17.52-9.73L58.8,70A16.91,16.91,0,0,0,79,76.59c3.72-1.24,6-3,6.63-5.33.88-3-.91-6.39-1.94-8L82,64.62a1.23,1.23,0,0,1-1.74-.13l-4.9-5.75A1.22,1.22,0,0,1,75.53,57l3.21-2.75a1.21,1.21,0,0,0,.13-1.73l-5.71-6.68,2.55-2.17L87.93,58a1.23,1.23,0,0,1-.14,1.73l-.93.8C88.17,62.45,91.07,67.47,89.59,72.44Z"/></g></g></svg>