<svg xmlns="http://www.w3.org/2000/svg" viewBox="0 0 122 122"><defs><style>.cls-1{fill:none;}.cls-2{fill:#fff;}</style></defs><title>Asset 52</title><g id="Layer_2" data-name="Layer 2"><g id="Layer_1-2" data-name="Layer 1"><rect class="cls-1" width="122" height="122"/><path class="cls-2" d="M83,84.12c-1.62,1.63-5.26,2.65-7.31,3A96.44,96.44,0,0,1,57,89a96.44,96.44,0,0,1-18.69-1.84c-2.05-.39-5.68-1.41-7.31-3l1.63-6.5c2.69-6.45,6.17-8.92,11-8.92h2.72a14.92,14.92,0,0,0,21.22,0h2.72c4.87,0,8.35,2.47,11,8.92Z"/><path class="cls-2" d="M74.13,54.19a4.44,4.44,0,0,1-4.46,4.43,4.36,4.36,0,0,1-.81-.08C66.67,64.93,62.18,70.27,57,70.27s-9.67-5.34-11.86-11.73a4.36,4.36,0,0,1-.81.08,4.43,4.43,0,0,1-.64-8.82A18,18,0,0,1,49,37,11.16,11.16,0,0,1,65,37a18,18,0,0,1,5.35,12.8A4.43,4.43,0,0,1,74.13,54.19Z"/></g></g></svg>